<svg xmlns="http://www.w3.org/2000/svg" width="260" height="26" fill="#5f3473"><path d="M8.603 5.105c-.377.284-.566.757-.566 1.418v1.135h3.876v3.782H8.037v12.669H2.363V11.345H0V7.563h2.363V5.957c0-1.797.568-3.31 1.797-4.35C5.389.567 6.997 0 8.887 0c1.23 0 2.458.189 3.688.663l-.757 4.348c-.851-.284-1.513-.473-1.891-.473-.567.095-1.04.284-1.324.567zm13.9 2.08c.944-.567 2.08-.85 3.308-.85v5.2h-.851c-1.323 0-2.457.283-3.31.945-.85.663-1.323 1.513-1.417 2.553v8.887h-5.768V6.617h5.768V9.55a6.073 6.073 0 012.269-2.365zm18.53.852c1.324 1.133 1.985 2.646 1.985 4.537v11.44h-5.483V21.84c-1.135 1.417-2.837 2.175-5.106 2.175-1.796 0-3.214-.473-4.254-1.513-1.04-.945-1.513-2.269-1.513-3.877 0-1.607.567-2.93 1.702-3.782 1.134-.945 2.741-1.417 4.821-1.417h4.444v-.19c0-.85-.284-1.418-.85-1.89-.568-.473-1.324-.663-2.364-.663-.757 0-1.513.095-2.365.379-.85.19-1.795.567-2.647 1.04L27.891 8.32c1.418-.663 2.742-1.135 3.97-1.417a17.577 17.577 0 013.972-.474c2.08 0 3.97.473 5.2 1.608zM36.4 19.57c.663-.377 1.04-.945 1.229-1.607v-1.512h-3.404c-1.607 0-2.363.567-2.363 1.796 0 .568.19 1.04.567 1.418.378.378.946.568 1.702.568.85 0 1.607-.284 2.269-.663zM72.233 8.225c1.134 1.23 1.702 2.837 1.702 4.823v10.967h-5.673v-9.36c0-.946-.284-1.797-.757-2.364-.472-.568-1.228-.851-2.08-.851-.945 0-1.796.377-2.363 1.135-.567.756-.85 1.702-.85 2.836v8.604h-5.675v-9.36c0-.946-.283-1.797-.756-2.364-.473-.568-1.229-.851-2.08-.851-.945 0-1.797.377-2.364 1.135-.567.756-.85 1.702-.85 2.836v8.604h-5.578V6.429h5.577v3.12c.568-1.04 1.324-1.796 2.27-2.269.945-.567 1.985-.757 3.308-.757 1.419 0 2.553.379 3.593 1.04a5.347 5.347 0 012.08 2.837c.567-1.323 1.324-2.269 2.364-2.931 1.04-.662 2.27-.946 3.593-.946 1.89-.094 3.403.474 4.537 1.703zm18.814.568c1.513 1.702 2.27 3.97 2.27 6.807v1.04H81.403c.284.945.757 1.703 1.419 2.269.662.568 1.513.756 2.458.756.757 0 1.418-.188 2.175-.472.662-.284 1.323-.756 1.89-1.324l2.932 2.931c-.852 1.04-1.987 1.797-3.215 2.269-1.229.568-2.647.756-4.255.756-1.796 0-3.404-.377-4.822-1.134-1.417-.756-2.457-1.796-3.12-3.026-.756-1.323-1.135-2.836-1.135-4.632 0-1.796.379-3.31 1.135-4.728a8.24 8.24 0 013.12-3.12c1.324-.756 2.932-1.134 4.728-1.134 2.742.284 4.916 1.134 6.334 2.742zm-3.214 4.822c0-1.04-.284-1.797-.851-2.458a3.13 3.13 0 00-2.269-.946 3.39 3.39 0 00-2.27.85c-.566.568-1.04 1.419-1.228 2.459h6.618zm4.632-7.186h5.862l3.498 11.913 3.404-11.913h5.578l3.403 11.913 3.499-11.913h5.673l-6.429 17.586h-5.673l-3.403-10.873-3.31 10.873h-5.672zm62.305.851c.947-.567 1.987-.757 3.215-.757v5.2h-.85c-1.325 0-2.458.284-3.31.946-.85.662-1.323 1.513-1.418 2.553v8.793h-5.672V6.429h5.672v3.214c.662-1.04 1.418-1.796 2.363-2.363zm16.263 16.735l-3.688-6.524-1.796 1.796v4.728h-5.767V.095h5.767V12.48l5.578-5.863h6.523l-6.428 6.714 6.523 10.684zm-31.2-16.546c1.702.756 3.025 1.796 3.97 3.12.946 1.324 1.419 2.836 1.419 4.633 0 1.796-.473 3.308-1.419 4.633-.945 1.323-2.268 2.363-3.97 3.12-1.703.755-3.688 1.134-5.956 1.134-2.27 0-4.255-.378-5.957-1.134-1.702-.757-3.025-1.797-3.971-3.12-.946-1.324-1.419-2.837-1.419-4.633 0-1.702.473-3.309 1.419-4.633.946-1.324 2.27-2.364 3.971-3.12 1.702-.756 3.687-1.134 5.957-1.134 2.268.094 4.253.377 5.956 1.134zm-14.276 14.654c.378.19.661.379.945.757.19.283.283.663.283 1.04s-.094.757-.283 1.04c-.189.283-.567.567-.945.757-.379.188-.852.283-1.324.283-.473 0-.946-.095-1.324-.283-.378-.19-.662-.379-.946-.757-.188-.283-.283-.663-.283-1.04s.095-.757.283-1.04a1.98 1.98 0 01.946-.757c.378-.188.851-.283 1.324-.283.472.095.945.19 1.324.283zM251.644 2.63c2.029.9 3.607 2.14 4.734 3.72 1.127 1.577 1.691 3.38 1.691 5.523 0 2.142-.564 3.945-1.69 5.523-1.128 1.579-2.706 2.819-4.735 3.72-2.03.902-4.397 1.353-7.102 1.353-2.706 0-5.073-.45-7.102-1.353-2.03-.901-3.607-2.141-4.735-3.72-1.127-1.578-1.69-3.381-1.69-5.523 0-2.03.563-3.946 1.69-5.524 1.128-1.578 2.706-2.818 4.735-3.72 2.03-.902 4.396-1.353 7.102-1.353 2.705.113 5.073.451 7.102 1.353zM234.622 20.102c.45.225.789.45 1.127.902.226.338.338.789.338 1.24 0 .45-.112.901-.338 1.24-.225.338-.676.676-1.127.901-.451.226-1.015.339-1.578.339-.564 0-1.128-.113-1.579-.339-.45-.225-.789-.45-1.127-.901-.225-.339-.338-.79-.338-1.24 0-.451.113-.902.338-1.24a2.354 2.354 0 011.127-.902c.451-.226 1.015-.338 1.579-.338.563.112 1.127.225 1.578.338z"/></svg>